<svg viewBox="0 0 2500 1000" xmlns="http://www.w3.org/2000/svg" height="500" width="500">
	<defs>
		<style>
			path { fill: white; }
			circle { fill: hsl(288 55% 36%); }
		</style>
		<circle id="bkg" cx="250" cy="250" r="250"/>
		<path id="n1" d="M288.6 83.7v332.6h-73V171l-52.2 38.4v-79.2l62.8-46.5h62.4Z"/>
		<path id="n2" d="M235.1 81.3c69.5 0 104.2 26.9 104.2 80.6v28.3c0 31-11.9 55.4-35.5 73l-43.2 36.5a101.1 101.1 0 0 0-22.4 23c-2.7 5.1-4 13.1-4 24v6.3H335v63.3H160.7v-78.2c0-31.7 13.3-57.8 39.9-78.3l48-41.2c7-5.5 11.7-11 14.1-16.6a63.9 63.9 0 0 0 3.6-24.2V171c0-7.3-2.3-13-7-17-4.6-4-13-6-25.1-6-24.4 0-46.6 4.3-66.8 13V91.8c19.2-7 41.8-10.5 67.7-10.5Z"/>
		<path id="n3" d="M229.6 80.8c35.5 0 62 7 79.7 21.1 17.6 14.1 26.4 34 26.4 59.5v33.2c0 13.7-3 25-8.9 34-6 9-13.8 14.8-23.8 17.3 22.4 2.3 33.6 17.8 33.6 46.6v46c0 25.7-8.6 45.5-25.9 59.6-17.3 14-42.1 21.1-74.6 21.1s-56.7-3.4-72.7-10V341c19.5 8.3 41.2 12.4 65 12.4s35.8-7.6 35.8-23v-27.8c0-7.7-1.8-13-5.3-15.6-3.5-2.8-10-4.1-19.2-4.1h-37.5v-67.2h36.5c16.3 0 24.5-7.9 24.5-23.5v-22.6c0-15.4-11.6-23-34.8-23s-42.3 2.8-57.4 8.6V87.5c13.5-4.5 33-6.7 58.6-6.7Z"/>
		<path id="n4" d="M357.5 297.3v62.9h-31.2v56.1h-67.7v-56.1H142.5v-66.8l92.1-209.7h91.7v213.6h31.2Zm-96 0V160.5l-58 136.8h58Z"/>
		<path id="n5" d="M266 291c0-13.7-7.1-20.6-21.5-20.6-6.1 0-33 1.4-80.7 4.3v-191h163.7v67.2h-92.1V207c5.4-.3 14-.4 25.9-.4 24.3 0 43.3 6.1 56.9 18.4 13.6 12.4 20.4 30.7 20.4 55v58.6c0 53.7-34.6 80.6-103.7 80.6-26 0-50.4-3.7-73.5-11V341c26.6 8.3 50.7 12.4 72.3 12.4s32.4-7.6 32.4-23V291Z"/>
		<path id="n6" d="M154.2 171.5c0-27.2 8.5-49 25.5-65.5s44-24.7 81.1-24.7c29.4 0 52.2 3.3 68.2 10v68.2c-18-7.7-39.6-11.5-64.8-11.5s-38 10.6-38 31.7v22c8.7-2.8 21.8-4.3 39.4-4.3 26 0 45.8 6.8 59.5 20.2 13.8 13.4 20.7 32.2 20.7 56.2v61.4c0 26.6-7.9 47.5-23.6 62.9-15.6 15.3-39.8 23-72.4 23s-56.8-7.6-72.3-22.8c-15.5-15.2-23.3-36.2-23.3-63.1V171.5Zm96 87.9c-8.3 0-16.3 1-24 2.8v71.6c0 8 1.6 14 4.8 18 3.2 4 9.5 6 18.8 6s15.6-2 19-6c3.3-4 5-10 5-18V281c0-14.4-7.9-21.6-23.6-21.6Z"/>
		<path id="n7" d="M162.2 83.7h175.6v58L296.1 267a307.3 307.3 0 0 0-14.9 99.4v50h-73v-56.2c0-42 5.3-77 15.9-105.2l32.6-104.6h-94.5V83.7Z"/>
		<path id="n8" d="M347.2 162.9v33.6c0 24.3-7.4 42.2-22 53.7 14.6 11.9 22 30 22 54.3V337c0 26.3-8 46.8-24 61.7-16 14.9-40.4 22.3-73.2 22.3s-57.2-7.3-73.2-22c-16-14.8-24-35.4-24-62v-32.6c0-24.3 7.4-42.4 22-54.3-14.6-11.5-22-29.4-22-53.7v-33.6c0-26.6 8-47.2 24-62 16-14.7 40.4-22 73.2-22s57.2 7.4 73.2 22.3 24 35.4 24 61.7Zm-123.4 1v35c0 16 8.8 24 26.2 24s26.2-8 26.2-24v-35c0-15.4-8.8-23.1-26.4-23.1-9.6 0-16.4 2-20.2 5.8-3.8 3.8-5.8 9.6-5.8 17.2Zm52.4 172.3V302c0-16-8.8-24-26.2-24s-26.2 8-26.2 24v34c0 15.4 8.8 23.1 26.2 23.1s26.2-7.7 26.2-23Z"/>
		<path id="n9" d="M154.2 164.8c0-26.6 7.9-47.5 23.6-62.9 15.6-15.3 39.8-23 72.4-23s56.8 7.6 72.3 22.8c15.5 15.2 23.3 36.2 23.3 63.1v173.3c0 25.6-9 45.4-26.7 59.5-17.7 14-43.6 21.1-77.5 21.1s-58.9-3.3-74.9-10v-68.2C186.2 348.8 209 353 235 353s38.9-7.7 38.9-23v-28.4c-9.6 3.8-25.6 5.8-48 5.8s-40-6.8-52.6-20.2c-12.6-13.4-19-32.3-19-56.6v-65.8Zm94.6 80.6a68 68 0 0 0 25-4.3v-74.9c0-8-1.6-14-4.8-18-3.2-4-9.5-6-18.8-6s-15.6 2-19 6c-3.3 4-5 10-5 18V222c0 15.7 7.6 23.5 22.6 23.5Z"/>
		<path id="n10" d="M135.3 83.7h62.4v332.6h-73V171l-52.3 38.4v-79.2l62.9-46.5Zm292.3 81.1v170.4c0 26.6-7.8 47.5-23.5 62.9-15.7 15.3-39.9 23-72.5 23s-56.7-7.6-72.2-22.8c-15.6-15.2-23.3-36.2-23.3-63.1V164.8c0-26.9 7.7-48 23.3-63.1 15.5-15.2 39.6-22.8 72.2-22.8s56.8 7.7 72.5 23c15.7 15.4 23.5 36.3 23.5 62.9Zm-72 2.9c0-8-1.7-14-5-18-3.4-4-9.7-6-19-6s-15.5 1.9-18.7 5.7c-3.2 3.9-4.8 10-4.8 18.3v164.6c0 8 1.6 14 4.8 18 3.2 4 9.4 6 18.7 6s15.6-2 19-6c3.3-4 5-10 5-18V167.7Z"/>
	</defs>

	<view id="1" viewBox="0 0 500 500"/><g transform="translate(0,0)"><use href="#bkg"/><use href="#n1"/></g>
	<view id="2" viewBox="500 0 500 500"/><g transform="translate(500,0)"><use href="#bkg"/><use href="#n2"/></g>
	<view id="3" viewBox="1000 0 500 500"/><g transform="translate(1000,0)"><use href="#bkg"/><use href="#n3"/></g>
	<view id="4" viewBox="1500 0 500 500"/><g transform="translate(1500,0)"><use href="#bkg"/><use href="#n4"/></g>
	<view id="5" viewBox="2000 0 500 500"/><g transform="translate(2000,0)"><use href="#bkg"/><use href="#n5"/></g>

	<view id="6" viewBox="0 500 500 500"/><g transform="translate(0,500)"><use href="#bkg"/><use href="#n6"/></g>
	<view id="7" viewBox="500 500 500 500"/><g transform="translate(500,500)"><use href="#bkg"/><use href="#n7"/></g>
	<view id="8" viewBox="1000 500 500 500"/><g transform="translate(1000,500)"><use href="#bkg"/><use href="#n8"/></g>
	<view id="9" viewBox="1500 500 500 500"/><g transform="translate(1500,500)"><use href="#bkg"/><use href="#n9"/></g>
	<view id="10" viewBox="2000 500 500 500"/><g transform="translate(2000,500)"><use href="#bkg"/><use href="#n10"/></g>
</svg>
